<svg xmlns="http://www.w3.org/2000/svg" width="2048" height="2048" shape-rendering="geometricPrecision"><g transform="translate(2048, 0) scale(-1, 1)scale(8,8)" stroke-width=".05%"><g fill="#234400"><path d=" M 113.93 14.29 C 118.71 17.98 120.92 24.04 120.88 29.95 C 121.55 40.64 115.79 50.43 116.31 61.13 C 112.78 59.58 108.75 57.63 107.61 53.59 C 105.23 45.38 109.08 37.20 111.92 29.65 C 113.90 24.77 113.71 19.45 113.93 14.29 Z"/><path d=" M 141.14 16.64 C 142.63 19.89 143.95 23.46 143.10 27.08 C 141.68 33.17 138.30 38.65 134.15 43.26 C 133.07 41.27 132.00 39.29 130.92 37.31 C 136.01 31.39 138.73 23.96 141.14 16.64 Z"/><path d=" M 98.88 18.50 C 107.13 25.22 105.51 37.12 102.20 45.96 C 100.48 44.60 98.76 43.23 97.04 41.88 C 99.55 34.32 99.46 26.34 98.88 18.50 Z"/><path d=" M 147.51 33.62 C 152.13 29.43 154.42 23.51 156.83 17.92 C 158.99 22.58 159.99 27.91 158.29 32.88 C 155.59 44.19 145.55 51.56 141.79 62.38 C 138.39 59.67 135.62 55.57 136.50 51.02 C 137.94 44.12 142.46 38.33 147.51 33.62 Z"/><path d=" M 72.86 27.65 C 78.15 29.36 82.45 33.29 84.79 38.31 C 90.18 48.14 88.34 60.02 93.29 70.01 C 88.96 70.22 83.97 69.54 81.49 65.50 C 74.84 56.13 79.15 44.05 75.24 33.84 C 74.52 31.75 73.66 29.71 72.86 27.65 Z"/><path d=" M 126.14 36.96 C 126.02 33.67 127.31 30.59 128.52 27.61 C 128.48 30.94 127.76 34.52 129.35 37.64 C 131.43 41.93 134.26 46.08 134.50 51.00 C 134.89 54.29 133.21 57.27 131.90 60.15 C 131.66 51.98 125.81 45.19 126.14 36.96 Z"/><path d=" M 164.82 45.89 C 171.98 42.50 177.45 36.70 182.98 31.22 C 183.45 42.01 173.75 49.06 164.80 52.71 C 164.80 50.43 164.81 48.16 164.82 45.89 Z"/><path d=" M 91.26 33.46 C 92.30 36.84 93.23 40.52 96.05 42.91 C 99.60 46.01 103.58 48.96 105.57 53.39 C 107.03 56.12 106.44 59.29 106.22 62.22 C 103.11 55.43 96.19 51.48 93.09 44.69 C 91.15 41.28 91.23 37.26 91.26 33.46 Z"/><path d=" M 160.46 43.73 C 161.76 40.65 164.20 38.27 166.53 35.94 C 165.38 38.54 163.63 41.02 163.47 43.95 C 163.08 49.58 164.13 55.48 161.94 60.86 C 160.88 63.56 158.32 65.13 156.06 66.74 C 159.31 59.44 157.18 51.01 160.46 43.73 Z"/><path d=" M 60.70 37.59 C 71.03 40.55 73.88 52.30 74.38 61.71 C 72.18 60.98 69.97 60.25 67.77 59.51 C 67.65 51.60 63.86 44.60 60.70 37.59 Z"/><path d=" M 183.40 48.48 C 188.48 46.41 192.52 42.65 196.39 38.90 C 196.73 44.41 194.66 49.80 190.90 53.81 C 183.71 62.60 171.75 64.98 164.11 73.28 C 162.77 69.56 161.33 65.27 163.64 61.59 C 167.57 54.13 176.22 51.66 183.40 48.48 Z"/><path d=" M 121.11 53.01 C 120.57 49.12 123.02 45.79 124.82 42.60 C 125.93 45.40 127.03 48.21 128.23 50.97 C 127.26 54.01 126.66 57.16 126.29 60.33 C 124.20 58.23 121.19 56.30 121.11 53.01 Z"/><path d=" M 148.90 56.97 C 149.79 52.90 153.43 50.36 156.48 47.90 C 156.52 50.95 156.55 53.99 156.62 57.04 C 154.53 59.42 152.68 62.00 151.03 64.71 C 150.07 62.24 148.24 59.74 148.90 56.97 Z"/><path d=" M 93.73 60.26 C 91.58 56.84 92.61 52.62 93.34 48.94 C 95.34 51.01 97.48 52.99 99.18 55.33 C 100.00 58.42 100.30 61.64 101.07 64.76 C 98.42 63.71 95.28 62.90 93.73 60.26 Z"/><path d=" M 59.31 54.43 C 61.69 56.75 63.71 59.78 66.98 60.92 C 71.70 62.61 76.89 63.81 80.55 67.47 C 82.73 69.45 83.43 72.42 84.38 75.09 C 78.61 69.82 70.22 68.89 64.72 63.30 C 62.18 60.85 60.70 57.60 59.31 54.43 Z"/><path d=" M 39.40 56.65 C 44.65 56.14 49.98 57.55 54.15 60.83 C 63.52 67.64 66.98 79.48 75.63 86.99 C 72.20 88.25 68.36 90.15 64.77 88.32 C 57.39 85.12 53.57 77.33 50.47 70.37 C 48.12 64.84 43.80 60.58 39.40 56.65 Z"/><path d=" M 185.98 65.99 C 188.81 62.25 193.25 60.33 197.56 58.86 C 194.75 61.18 191.36 63.23 189.99 66.80 C 188.20 71.17 186.95 76.04 183.30 79.32 C 181.20 81.43 178.15 81.95 175.40 82.67 C 180.21 77.96 181.91 71.22 185.98 65.99 Z"/><path d=" M 213.60 61.32 C 213.62 62.08 213.64 62.84 213.67 63.60 C 208.17 71.22 198.39 74.30 189.30 73.35 C 190.19 71.18 191.09 69.02 191.98 66.85 C 199.63 67.35 206.75 64.31 213.60 61.32 Z"/><path d=" M 173.11 70.05 C 175.70 67.06 179.91 66.70 183.53 65.91 C 182.29 68.58 181.03 71.23 179.80 73.91 C 176.86 75.28 174.05 76.90 171.33 78.66 C 171.46 75.76 170.98 72.39 173.11 70.05 Z"/><path d=" M 67.20 67.64 C 69.88 68.85 72.57 70.05 75.31 71.13 C 76.89 73.98 78.60 76.75 80.50 79.40 C 77.64 79.55 74.36 79.99 72.00 77.95 C 68.68 75.58 67.97 71.36 67.20 67.64 Z"/><path d=" M 32.55 70.65 C 43.22 69.15 50.75 78.57 54.87 87.14 C 52.63 87.32 50.39 87.51 48.16 87.70 C 44.57 80.68 38.38 75.71 32.55 70.65 Z"/><path d=" M 205.06 77.50 C 211.40 78.29 217.48 75.90 223.35 73.87 C 221.30 78.98 217.38 83.25 212.19 85.25 C 201.92 90.05 190.10 87.69 179.65 91.84 C 179.99 87.94 180.64 83.55 184.07 81.10 C 190.05 76.68 198.00 76.83 205.06 77.50 Z"/><path d=" M 38.34 86.62 C 41.75 87.94 45.18 89.98 48.98 89.34 C 53.71 88.71 58.69 88.00 63.29 89.76 C 66.04 90.69 67.77 93.15 69.64 95.22 C 62.13 92.40 53.86 95.35 46.41 92.30 C 43.28 91.12 40.77 88.83 38.34 86.62 Z"/><path d=" M 203.90 93.76 C 207.74 91.64 212.21 91.62 216.47 91.91 C 212.70 92.87 208.64 93.85 206.03 96.98 C 202.32 101.23 197.87 105.00 192.24 106.34 C 190.43 105.88 188.63 105.44 186.81 105.03 C 193.61 103.04 197.55 96.57 203.90 93.76 Z"/><path d=" M 190.41 92.58 C 193.83 91.04 197.51 92.38 200.96 93.07 C 198.69 95.13 196.36 97.13 194.07 99.17 C 190.90 99.19 187.75 99.44 184.61 99.88 C 185.97 97.10 187.21 93.70 190.41 92.58 Z"/><path d=" M 20.98 97.43 C 25.70 94.39 31.54 93.83 36.89 95.36 C 47.79 97.79 55.49 106.90 66.20 109.82 C 63.68 112.92 60.34 116.07 56.01 115.72 C 47.84 115.15 41.35 109.51 35.41 104.41 C 31.31 100.83 26.02 99.22 20.98 97.43 Z"/><path d=" M 50.89 95.53 C 53.92 95.46 56.96 95.40 59.99 95.31 C 62.46 97.24 65.10 98.92 67.76 100.58 C 65.28 101.76 62.72 103.34 59.84 102.83 C 55.72 102.29 53.28 98.49 50.89 95.53 Z"/><path d=" M 203.21 102.14 C 204.78 100.53 206.33 98.90 207.88 97.27 C 215.08 100.55 223.11 100.33 230.85 100.63 C 223.60 108.42 211.83 106.05 203.21 102.14 Z"/><path d=" M 187.37 115.40 C 189.24 111.45 192.17 107.44 196.85 106.82 C 204.26 106.03 211.31 109.33 217.83 112.44 C 223.01 114.93 228.82 115.46 234.47 115.87 C 231.02 118.94 226.92 121.62 222.14 121.71 C 210.00 123.31 199.30 115.78 187.37 115.40 Z"/><path d=" M 20.34 113.11 C 23.36 111.64 26.56 110.16 30.01 110.55 C 36.64 110.91 42.37 114.84 47.55 118.67 C 45.66 119.75 43.86 121.05 41.80 121.80 C 39.85 120.99 38.13 119.73 36.29 118.72 C 31.36 115.88 25.71 114.79 20.34 113.11 Z"/><path d=" M 42.46 123.46 C 46.74 121.05 50.99 118.08 56.02 117.61 C 59.02 117.24 61.73 118.82 64.38 119.95 C 56.87 120.17 51.10 125.92 43.75 126.73 C 39.97 127.27 36.19 126.48 32.52 125.63 C 35.84 125.02 39.46 125.24 42.46 123.46 Z"/><path d=" M 187.77 123.76 C 189.80 121.66 191.83 118.98 195.00 118.74 C 198.95 118.40 202.30 120.92 205.40 123.01 C 202.57 124.01 199.75 125.02 196.95 126.11 C 193.93 125.15 190.86 124.42 187.77 123.76 Z"/><path d=" M 55.39 124.38 C 58.61 124.38 61.77 125.24 64.96 125.60 C 63.02 127.79 61.18 130.56 58.12 131.22 C 54.22 131.84 50.56 129.91 47.51 127.70 C 50.12 126.57 52.65 125.19 55.39 124.38 Z"/><path d=" M 187.82 129.68 C 195.64 129.44 202.30 124.38 210.13 124.33 C 213.55 124.00 216.72 125.65 219.88 126.69 C 216.74 126.81 213.43 126.31 210.46 127.62 C 205.76 129.56 201.26 132.55 195.99 132.50 C 192.99 132.64 190.40 130.93 187.82 129.68 Z"/><path d=" M 18.89 137.47 C 22.77 133.27 28.07 130.25 33.89 130.19 C 45.17 129.09 55.73 134.82 67.03 133.81 C 65.52 137.76 62.68 141.41 58.46 142.61 C 50.70 145.30 42.63 142.00 35.36 139.31 C 30.09 137.42 24.42 137.43 18.89 137.47 Z"/><path d=" M 204.44 132.23 C 206.50 131.26 208.56 130.27 210.63 129.31 C 216.34 134.92 224.05 137.26 231.30 140.06 C 226.56 142.56 220.77 142.36 215.93 140.24 C 211.54 138.48 207.95 135.31 204.44 132.23 Z"/><path d=" M 184.33 139.32 C 187.76 136.26 192.18 133.33 197.02 134.58 C 204.55 136.40 210.10 142.22 215.40 147.50 C 219.21 151.34 224.29 153.42 229.07 155.74 C 223.70 158.14 217.49 158.27 212.06 155.97 C 201.72 152.28 194.90 142.58 184.33 139.32 Z"/></g></g><g transform="scale(16,16)" stroke-width=".05%"><g fill="#74131b"><path d="M34.71 44.44c2.8-2.72 6.7-3.73 10.52-3.65.62.58 1.24 1.14 1.86 1.7-.89 1.31-1.37 2.72-1.42 4.24-.42.4-.84.8-1.27 1.19 3.33.91 6.77 1.92 10.24 1.06 5.03-3.81 11.02-6.2 17.4-6.02 3.34-.43 6.28 1.38 9.47 1.94 3.78-2.9 8.31-.46 11.63 1.9 3.4 2.68 7.99 1.87 11.78 3.56l-5.18.36c1.49.76 3.05 1.36 4.59 1.98-4.73 2.28-9.96.23-14.96 1.36-2.29-1.49-4.21-3.46-6.41-5.09-.87 3.61-2.33 7.25-5.89 8.98 2.18 1.33 4.49 2.43 6.88 3.35-1.4 2.58-3.07 5.01-4.44 7.61l-1.08.04c2.91 3.77 3.17-7.11 6.24-2.83-1.97 1.93-3.48 4.27-5.44 6.2-.75 1.04-1.67-.28-2.35-.66.22 2.3-1.7 3.99-2.85 5.77.91 2.5.3 4.98-1.43 6.96-1.68-1.92-1.74-4.57-1.41-6.96 2.27-3.81 4.47-7.68 7-11.33-4.39-.64-8.96-2.2-12.11-5.43-.98-2.56 1.06-5 1.57-7.42-4.88 2.53-6.44 8.24-9.32 12.54 1.61 5.03 2.94 10.16 4.89 15.07.56 1.5 1.92 2.62 3.54 1.78.64 1.65 1.36 3.26 2.03 4.9-5.63-.41-7.53-6.09-10.05-10.17-2.14-3.25-3.68-6.95-6.3-9.85-3.11-1.9-6.62-3.73-8.17-7.25.34-2.36 1.25-4.94-.14-7.14-.49-1.59-2.79-1.6-3.25-3.13.71-1.51 3.22-1.54 3.38-3.54-1.55 1.02-3.3 1.83-4.58 3.2-1.69 1.3-4.09.77-6.01 1.48.55-.77 1.66-2.3 2.21-3.07-3.48 1.93-7.06 3.88-11.07 4.39-.56-.25-1.66-.76-2.22-1.02 2.06-1.79 4.72-2.48 7.16-3.55.29-1.98 2.26-2.82 3.65-3.93.33.12.99.36 1.31.48m9.66-.37c.3.29.3.29 0 0z"/><path d="M46.35 79.37c-2.97-3.66.11-8.48.22-12.59 1.67.52 3.35.98 5.06 1.38-1.18 2.31-2.5 4.55-3.51 6.94-.74 1.96 1.64 2.9 2.85 3.87 1.08-.55 1.87-1.94 3.17-1.9 1.64.69 3.1 1.74 4.59 2.71-1.16.64-2.32 1.26-3.49 1.88-2.92-.94-5.96-1.41-8.89-2.29z"/></g><g fill="#c3c0bf"><path d="M100.97 51.7c2.53-.27 5.59-2.78 7.8-.58 1.77 1.35 2.02 3.69 2.45 5.7-3.94-1.13-7.37 1.83-11.22 2.01-2.84-.03-5.15-1.84-7.26-3.53 3.99-1.85 9 .49 12.43-2.83-1.05-.2-3.15-.58-4.2-.77zM26.26 53.79c1.97-1.36 4.35-1.86 6.56-2.71-.24.36-.7 1.06-.93 1.42 4.04-1.57 9.17-2.43 12.19 1.49.2 3.81-1.29 7.91.82 11.43-1.41-1.81-3.96-3.08-4.34-5.55-.62-2.28-1.05-5.55-3.76-6.21-3.5-.44-7.03.15-10.54.13zM60.55 64.59c1.77-3.7 3.33-7.65 6.54-10.37-.65 1.53-1.31 3.06-1.95 4.6.14.66.44 1.97.58 2.62-1.75 1.01-3.44 2.11-5.17 3.15z"/></g></g></svg>